HIERARCHY
ROOT Hips
{
	OFFSET 0.00000 0.00000 0.00000
	CHANNELS 6 Xposition Yposition Zposition Zrotation Yrotation Xrotation 
	JOINT LHipJoint
	{
		OFFSET 0 0 0
		CHANNELS 3 Zrotation Yrotation Xrotation
		JOINT LeftUpLeg
		{
			OFFSET 1.41261 -1.82971 0.84908
			CHANNELS 3 Zrotation Yrotation Xrotation
			JOINT LeftLeg
			{
				OFFSET 2.52554 -6.93888 0.00000
				CHANNELS 3 Zrotation Yrotation Xrotation
				JOINT LeftFoot
				{
					OFFSET 2.56654 -7.05152 0.00000
					CHANNELS 3 Zrotation Yrotation Xrotation
					JOINT LeftToeBase
					{
						OFFSET 0.21698 -0.59616 1.85369
						CHANNELS 3 Zrotation Yrotation Xrotation
						End Site
						{
							OFFSET 0.00000 -0.00000 0.97832
						}
					}
				}
			}
		}
	}
	JOINT RHipJoint
	{
		OFFSET 0 0 0
		CHANNELS 3 Zrotation Yrotation Xrotation
		JOINT RightUpLeg
		{
			OFFSET -1.12808 -1.82971 0.84907
			CHANNELS 3 Zrotation Yrotation Xrotation
			JOINT RightLeg
			{
				OFFSET -2.53425 -6.96280 0.00000
				CHANNELS 3 Zrotation Yrotation Xrotation
				JOINT RightFoot
				{
					OFFSET -2.58413 -7.09983 0.00000
					CHANNELS 3 Zrotation Yrotation Xrotation
					JOINT RightToeBase
					{
						OFFSET -0.26437 -0.72636 1.92241
						CHANNELS 3 Zrotation Yrotation Xrotation
						End Site
						{
							OFFSET -0.00000 -0.00000 1.02667
						}
					}
				}
			}
		}
	}
	JOINT LowerBack
	{
		OFFSET 0 0 0
		CHANNELS 3 Zrotation Yrotation Xrotation
		JOINT Spine
		{
			OFFSET -0.02096 2.02288 -0.14752
			CHANNELS 3 Zrotation Yrotation Xrotation
			JOINT Spine1
			{
				OFFSET 0.03477 2.03136 -0.02358
				CHANNELS 3 Zrotation Yrotation Xrotation
				JOINT Neck
				{
					OFFSET 0 0 0
					CHANNELS 3 Zrotation Yrotation Xrotation
					JOINT Neck1
					{
						OFFSET 0.00174 1.74359 0.19336
						CHANNELS 3 Zrotation Yrotation Xrotation
						JOINT Head
						{
							OFFSET -0.03054 1.76140 -0.17751
							CHANNELS 3 Zrotation Yrotation Xrotation
							End Site
							{
								OFFSET -0.00863 1.77239 -0.08120
							}
						}
					}
				}
				JOINT LeftShoulder
				{
					OFFSET 0 0 0
					CHANNELS 3 Zrotation Yrotation Xrotation
					JOINT LeftArm
					{
						OFFSET 3.68685 1.32687 -0.67367
						CHANNELS 3 Zrotation Yrotation Xrotation
						JOINT LeftForeArm
						{
							OFFSET 4.76468 -0.00000 -0.00000
							CHANNELS 3 Zrotation Yrotation Xrotation
							JOINT LeftHand
							{
								OFFSET 3.52712 -0.00000 -0.00000
								CHANNELS 3 Zrotation Yrotation Xrotation
								JOINT LeftFingerBase
								{
									OFFSET 0 0 0
									CHANNELS 3 Zrotation Yrotation Xrotation
									JOINT LeftHandIndex1
									{
										OFFSET 0.85956 -0.00000 -0.00000
										CHANNELS 3 Zrotation Yrotation Xrotation
										End Site
										{
											OFFSET 0.69300 -0.00000 -0.00000
										}
									}
								}
								JOINT LThumb
								{
									OFFSET 0 0 0
									CHANNELS 3 Zrotation Yrotation Xrotation
									End Site
									{
										OFFSET 0.70358 -0.00000 0.70358
									}
								}
							}
						}
					}
				}
				JOINT RightShoulder
				{
					OFFSET 0 0 0
					CHANNELS 3 Zrotation Yrotation Xrotation
					JOINT RightArm
					{
						OFFSET -3.31304 1.28268 -0.97357
						CHANNELS 3 Zrotation Yrotation Xrotation
						JOINT RightForeArm
						{
							OFFSET -4.90577 -0.00000 -0.00000
							CHANNELS 3 Zrotation Yrotation Xrotation
							JOINT RightHand
							{
								OFFSET -3.42692 -0.00000 0.00000
								CHANNELS 3 Zrotation Yrotation Xrotation
								JOINT RightFingerBase
								{
									OFFSET 0 0 0
									CHANNELS 3 Zrotation Yrotation Xrotation
									JOINT RightHandIndex1
									{
										OFFSET -0.74096 -0.00000 -0.00000
										CHANNELS 3 Zrotation Yrotation Xrotation
										End Site
										{
											OFFSET -0.59738 -0.00000 -0.00000
										}
									}
								}
								JOINT RThumb
								{
									OFFSET 0 0 0
									CHANNELS 3 Zrotation Yrotation Xrotation
									End Site
									{
										OFFSET -0.60650 -0.00000 0.60650
									}
								}
							}
						}
					}
				}
			}
		}
	}
}
MOTION
Frames: 10
Frame Time: .0083333
1.9670 24.8517 5.3146 201.4370 -80.5265 161.0840 0.0000 0.0000 0.0000 -5.1699 -7.7744 -13.6323 4.0664 12.2483 36.6159 -0.6688 15.7931 1.3289 0.3459 -3.7792 -10.4563 0.0000 0.0000 0.0000 24.0417 -12.8339 -27.8324 -11.9622 -18.3746 65.8690 0.1415 -16.5298 10.1322 -1.7452 -8.3140 23.6719 -0.1506 -0.4134 18.1248 0.9210 -0.7214 3.3892 1.2483 -0.4324 -6.4900 14.2642 7.8304 0.0918 -32.4637 13.5815 15.0056 -13.2205 5.2557 7.9747 0.0000 0.0000 0.0000 -78.2589 5.3711 27.5555 92.1658 -59.9823 -61.8755 -0.0000 0.0000 -18.5800 18.0275 -25.4861 -7.9718 -7.1250 0.0000 -0.0000 -7.0567 3.5296 6.6605 0.0000 0.0000 0.0000 91.6150 -40.8298 11.5494 -67.0322 57.9098 -40.2489 0.0000 -0.0000 -25.0274 -20.6653 -25.2684 9.1462 7.1250 -0.0000 -0.0000 9.8533 -56.4780 -2.7918
1.8927 24.7935 5.3165 235.2070 -88.2254 127.3110 0.0000 0.0000 0.0000 -6.4567 -6.4513 -12.4346 4.1858 12.4036 37.1753 -0.1321 11.5159 5.9898 2.6227 -10.0577 -29.1639 0.0000 0.0000 0.0000 22.2160 -13.7473 -27.6007 -11.2503 -18.0554 63.5919 0.2583 -16.4188 8.7038 -1.2840 -7.1807 20.2517 -1.0664 -0.6400 17.6989 0.7524 -1.1622 3.1490 1.6835 -0.6117 -6.4945 13.0350 7.2174 -1.1934 -26.9375 12.5499 17.0309 -10.6966 4.8676 7.9945 -0.0000 0.0000 0.0000 -75.5191 5.4740 24.0987 92.4233 -59.9778 -62.0985 -0.0000 0.0000 -18.6541 17.2009 -26.2327 -7.7917 -7.1250 0.0000 -0.0000 -7.6208 2.9017 7.2910 -0.0000 0.0000 0.0000 91.8193 -41.4869 9.2959 -62.8778 57.0293 -36.7458 0.0000 -0.0000 -25.3838 -22.2824 -26.8246 10.4764 7.1250 -0.0000 -0.0000 8.8653 -58.4160 -2.9237
1.8048 24.6848 5.3519 180.7170 -95.9725 182.3430 0.0000 0.0000 0.0000 -6.8009 -4.7652 -11.4312 4.1878 12.4062 37.1844 -0.6899 16.4202 2.1411 0.6373 -5.1074 -14.2151 0.0000 0.0000 0.0000 20.8155 -13.4747 -27.5597 -10.5687 -17.7175 61.3727 0.2408 -14.2064 6.8378 -1.3331 -7.3113 20.6410 -1.6177 -0.6951 16.8778 0.8478 -1.2776 2.6948 2.1106 -0.6335 -6.5174 16.2487 9.9942 -4.9457 -24.6540 16.4297 19.8124 -9.8532 6.7944 10.7431 -0.0000 0.0000 0.0000 -72.8834 5.6331 20.5761 92.5168 -59.9761 -62.1794 -0.0000 0.0000 -18.3710 17.3555 -25.6828 -7.7135 -7.1250 0.0000 -0.0000 -7.4812 3.4353 7.0811 -0.0000 0.0000 0.0000 91.0730 -42.8547 8.6784 -60.3718 56.4082 -34.6506 0.0000 -0.0000 -26.7296 -23.0080 -27.8728 11.2285 7.1250 -0.0000 -0.0000 8.6011 -59.6544 -3.0913
1.7155 24.5302 5.4409 187.0400 -102.0760 176.5480 0.0000 0.0000 0.0000 -6.9686 -3.3835 -9.8535 4.0930 12.2831 36.7411 -0.7735 16.9090 1.3351 0.3131 -3.5969 -9.9454 0.0000 0.0000 0.0000 19.3175 -12.6892 -27.3756 -9.5078 -17.1236 57.8303 0.1695 -13.0652 6.8124 -0.9170 -6.1013 17.0787 -1.6990 -0.5236 16.1920 0.8481 -1.0255 2.2491 2.0925 -0.4901 -6.6302 17.2288 11.6148 -4.0714 -21.4403 17.8692 17.0252 -8.2824 8.0162 9.6366 -0.0000 0.0000 0.0000 -69.7475 6.2236 16.9259 93.3629 -59.9572 -62.9119 -0.0000 0.0000 -20.8845 17.7183 -26.2974 -8.0564 -7.1250 0.0000 -0.0000 -7.3147 2.7536 7.0130 -0.0000 0.0000 0.0000 89.8032 -43.3463 8.1669 -56.3630 55.2602 -31.3330 0.0000 -0.0000 -27.4093 -21.9064 -27.4831 10.5132 7.1250 -0.0000 -0.0000 9.6151 -58.9998 -3.3088
1.6129 24.3332 5.5511 189.7670 -107.9360 174.2200 0.0000 0.0000 0.0000 -7.1904 -1.8850 -7.9782 3.9371 12.0762 36.0022 -0.6891 16.7101 2.7001 0.3972 -4.0463 -11.2069 0.0000 0.0000 0.0000 17.4206 -11.8804 -26.3283 -8.3957 -16.4027 53.9759 0.2075 -12.5206 5.6670 -1.0050 -6.3792 17.8887 -2.0992 -0.6019 15.4664 0.9901 -1.1560 1.9957 2.4852 -0.5337 -6.4853 15.5203 11.3320 -4.9268 -19.4736 17.3861 18.5031 -7.3418 7.7245 9.8102 0.0000 -0.0000 0.0000 -67.5575 7.2840 11.9147 93.8548 -59.9438 -63.3378 -0.0000 0.0000 -21.8612 17.1999 -26.4105 -7.8396 -7.1250 0.0000 -0.0000 -7.6365 2.7217 7.3316 0.0000 -0.0000 0.0000 87.1689 -43.4128 9.0407 -52.3684 53.9072 -28.0770 0.0000 -0.0000 -25.7106 -19.9549 -26.4114 9.1742 7.1250 -0.0000 -0.0000 11.1650 -57.4808 -3.4411
1.5297 24.0856 5.6967 189.9730 -113.9330 174.8100 0.0000 0.0000 0.0000 -6.8121 -0.8873 -6.8437 3.8101 11.9033 35.3909 -0.6759 16.8207 3.1453 0.4267 -4.1921 -11.6177 0.0000 0.0000 0.0000 16.0234 -11.3019 -25.8409 -7.1334 -15.4432 49.3772 0.1733 -12.3864 6.1112 -0.6783 -5.2659 14.6686 -1.5355 -0.9240 14.4558 1.2171 -1.4383 1.5360 2.4440 -0.6707 -6.4092 13.6027 11.0517 -5.3477 -17.3769 16.8585 19.3162 -6.3383 7.4681 9.6583 0.0000 -0.0000 0.0000 -65.6226 8.7691 7.0612 94.2215 -59.9326 -63.6551 -0.0000 0.0000 -22.8060 17.7170 -25.8907 -7.9414 -7.1250 0.0000 -0.0000 -7.2798 3.1671 6.9235 0.0000 -0.0000 0.0000 84.2863 -43.3794 10.0372 -48.7877 52.4947 -25.2092 0.0000 -0.0000 -23.0308 -19.4846 -25.7688 8.7446 7.1250 -0.0000 -0.0000 11.3374 -56.7347 -3.2901
1.4499 23.7764 5.8793 194.4400 -119.8500 171.0290 0.0000 0.0000 0.0000 -8.7381 0.9209 -5.1606 3.6665 11.7028 34.6887 -0.6288 16.1878 2.9472 0.1694 -2.6512 -7.3091 0.0000 0.0000 0.0000 11.5563 -10.6616 -23.9874 -5.8785 -14.3095 44.4921 0.1702 -12.4906 6.2634 -1.1073 -6.6859 18.7880 -3.0614 -0.9634 13.9695 1.0701 -1.7180 1.1949 3.1984 -0.7578 -6.4483 11.2244 10.6554 -6.0632 -15.3204 16.2641 20.5020 -5.2969 7.1184 9.6809 0.0000 0.0000 0.0000 -64.1418 10.8705 2.7359 94.2292 -59.9323 -63.6618 -0.0000 0.0000 -22.9732 17.4801 -25.6580 -7.7649 -7.1250 0.0000 -0.0000 -7.4035 3.4410 7.0055 0.0000 0.0000 0.0000 80.3506 -43.8672 12.3792 -46.6361 51.5453 -23.5131 0.0000 -0.0000 -22.5996 -19.3184 -25.7367 8.6553 7.1250 -0.0000 -0.0000 11.4960 -56.6676 -3.3182
1.3829 23.4281 6.0734 194.9680 -125.4110 171.0970 0.0000 0.0000 0.0000 -8.8705 2.3188 -3.6881 3.4468 11.3854 33.5908 -0.4147 14.9463 4.9503 0.3602 -3.8556 -10.6708 0.0000 0.0000 0.0000 9.0201 -9.1905 -21.7904 -4.5816 -12.8965 38.9824 0.0151 -11.3281 7.7208 -0.7709 -5.6063 15.6462 -2.9189 -1.0417 13.3473 1.3499 -1.7562 0.7805 3.4102 -0.7643 -6.5355 9.3552 10.2130 -6.4834 -13.8208 15.6485 21.2415 -4.5505 6.7871 9.6218 0.0000 -0.0000 0.0000 -62.7252 13.1341 -0.7947 93.7031 -59.9481 -63.2064 -0.0000 0.0000 -23.8890 17.6754 -25.0487 -7.6839 -7.1250 0.0000 -0.0000 -7.2344 4.0303 6.7632 0.0000 -0.0000 0.0000 77.1848 -43.3330 13.6043 -43.7157 50.1235 -21.2485 0.0000 -0.0000 -23.0288 -19.1992 -26.9737 8.9755 7.1250 -0.0000 -0.0000 12.2683 -57.8782 -3.9057
1.3246 23.0418 6.2936 193.7660 -130.7940 172.6930 0.0000 0.0000 0.0000 -7.5080 3.6557 -2.6509 3.2715 11.1221 32.6927 -0.2253 13.7932 6.6603 0.5120 -4.5864 -12.7326 0.0000 0.0000 0.0000 7.6353 -6.9900 -19.1945 -3.4381 -11.3726 33.5469 -0.1107 -10.3384 8.9153 -0.9601 -6.2392 17.4800 -1.3579 -1.2070 12.2965 1.7555 -1.6980 0.4283 2.9173 -0.7732 -6.3583 8.0579 9.6486 -7.0205 -12.6445 14.8496 21.8709 -4.0270 6.3885 9.6269 -0.0000 -0.0000 0.0000 -60.7505 15.4120 -3.2412 92.6745 -59.9730 -62.3160 -0.0000 0.0000 -25.1539 17.6965 -24.5819 -7.5608 -7.1250 0.0000 -0.0000 -7.1840 4.5026 6.6514 -0.0000 -0.0000 0.0000 74.6120 -42.8192 14.0283 -41.4856 48.9258 -19.5519 0.0000 -0.0000 -24.0599 -18.7939 -27.3439 8.8843 7.1250 -0.0000 -0.0000 12.9065 -58.1565 -4.2000
1.2929 22.6013 6.5192 194.8500 -136.1710 172.3200 0.0000 0.0000 0.0000 -7.8644 4.6541 -1.5971 3.1440 10.9246 32.0261 -0.1548 13.2664 7.2147 0.4254 -4.1861 -11.6009 0.0000 0.0000 0.0000 4.5463 -3.3850 -15.6459 -2.4095 -9.6715 27.9192 -0.2762 -10.3548 11.0776 -1.1773 -6.8867 19.3803 -1.2228 -1.1715 11.5105 1.7316 -1.6232 0.1982 2.7820 -0.7398 -6.1694 6.7014 8.9467 -7.5295 -11.4970 13.8185 21.9084 -3.5286 5.9030 9.4154 0.0000 -0.0000 0.0000 -58.8885 17.7031 -4.7065 90.8440 -59.9973 -60.7309 -0.0000 0.0000 -26.2230 18.3040 -24.5211 -7.8172 -7.1250 0.0000 -0.0000 -6.8062 4.4710 6.3004 0.0000 -0.0000 0.0000 72.4696 -41.7692 13.8071 -38.7733 47.3261 -17.5319 0.0000 -0.0000 -22.7592 -18.7405 -27.6181 8.9381 7.1250 -0.0000 -0.0000 13.1208 -58.4160 -4.3535
